# Blender v2.78 (sub 0) OBJ File: ''
# www.blender.org
mtllib BevelBox.mtl
o Cube
v 1.000000 -1.000000 -1.000000
v 1.000000 -1.000000 1.000000
v -1.000000 -1.000000 -1.000000
v -1.000000 1.000000 -1.000000
v 0.316505 1.000000 -1.000000
v 1.000000 0.316505 -1.000000
v 1.000000 0.316505 1.000000
v 0.316504 1.000000 1.000000
v -0.115659 -1.000000 1.000000
v -1.000000 -1.000000 0.115659
v -1.000000 1.000000 0.115659
v -0.115659 1.000000 1.000000
vn -1.0000 -0.0000 -0.0000
vn 0.0000 -1.0000 0.0000
vn 0.0000 1.0000 0.0000
vn 1.0000 -0.0000 0.0000
vn 0.7071 0.7071 0.0000
vn 0.0000 0.0000 -1.0000
vn -0.7071 -0.0000 0.7071
vn -0.0000 -0.0000 1.0000
usemtl Material
s off
f 10//1 11//1 4//1 3//1
f 1//2 2//2 9//2 10//2 3//2
f 5//3 4//3 11//3 12//3 8//3
f 1//4 6//4 7//4 2//4
f 5//5 8//5 7//5 6//5
f 5//6 6//6 1//6 3//6 4//6
f 9//7 12//7 11//7 10//7
f 2//8 7//8 8//8 12//8 9//8
